<svg width="37" height="37" viewBox="0 0 37 37" fill="none" xmlns="http://www.w3.org/2000/svg">
<path d="M36.5 32.8172C36.5 35.0262 34.709 36.8172 32.5 36.8172H4.5C2.291 36.8172 0.5 35.0262 0.5 32.8172V4.8172C0.5 2.6082 2.291 0.8172 4.5 0.8172H32.5C34.709 0.8172 36.5 2.6082 36.5 4.8172V32.8172Z" fill="#77B255"/>
<path d="M29.78 7.17922C28.624 6.42822 27.076 6.75722 26.322 7.91522L15.436 24.6942L10.407 20.0442C9.393 19.1062 7.811 19.1692 6.874 20.1822C5.937 21.1962 5.999 22.7782 7.013 23.7152L14.222 30.3812C14.702 30.8262 15.312 31.0462 15.918 31.0462C16.591 31.0462 17.452 30.7642 18.017 29.9072C18.349 29.4012 30.517 10.6372 30.517 10.6372C31.268 9.47822 30.938 7.93022 29.78 7.17922Z" fill="white"/>
</svg>
