<svg width="39" height="40" viewBox="0 0 39 40" fill="none" xmlns="http://www.w3.org/2000/svg">
<path d="M18.8598 36.7422C17.4646 35.6225 4.50869 23.0234 4.36387 22.8856C3.79166 22.3134 3.43138 21.72 3.33248 21.176C3.23005 20.6109 3.40312 20.1164 3.8623 19.6572C4.28969 19.2298 4.81245 19.0038 5.37407 19.0038C6.0593 19.0038 6.7622 19.3287 7.34854 19.9186L13.2225 25.563C13.3249 25.6619 13.4592 25.7113 13.5899 25.7113C13.7276 25.7113 13.8618 25.6583 13.9643 25.5559C14.1691 25.351 14.1691 25.019 13.9678 24.8142L4.58993 15.129C3.65037 14.1894 3.20886 12.7519 4.32502 11.6357C4.75241 11.2083 5.27516 10.9823 5.83678 10.9823C6.52201 10.9823 7.22491 11.3072 7.81125 11.8971L17.4046 21.2502C17.507 21.3491 17.6412 21.4021 17.7755 21.4021C17.9097 21.4021 18.0474 21.3491 18.1499 21.2467C18.3547 21.0418 18.3583 20.7098 18.1534 20.5014L6.63151 8.68989C6.09816 8.15653 5.77673 7.51721 5.72022 6.89556C5.66723 6.2633 5.88976 5.67696 6.3666 5.20012C6.79399 4.77273 7.31675 4.54667 7.87836 4.54667C8.5636 4.54667 9.2665 4.87163 9.85283 5.45797L21.6043 16.9163C21.7067 17.0152 21.841 17.0682 21.9752 17.0682C22.1094 17.0682 22.2472 17.0152 22.3496 16.9127C22.5545 16.7079 22.558 16.3758 22.3531 16.1675L13.8194 7.39712C13.2826 6.86023 12.9611 6.22445 12.9081 5.60279C12.8552 4.97053 13.0777 4.38419 13.5545 3.90735C13.9819 3.47996 14.5047 3.25391 15.0663 3.25391C15.7515 3.25391 16.4544 3.57886 17.0408 4.16873C20.1703 7.24171 28.3401 15.2774 28.6156 15.5741C29.6647 16.2981 29.8766 15.2032 29.9296 14.4932C29.9896 13.6667 29.043 10.7809 29.594 8.18479C30.5195 4.73388 33.1862 5.29902 33.2463 5.32728C34.7086 6.01252 34.4296 7.03684 33.9103 9.09609L33.8573 9.50228C33.3134 12.1938 37.0504 20.1694 37.3259 20.7663C38.7918 23.9735 40.4801 30.4762 34.8887 36.0676C28.7604 42.1959 21.1734 39.0558 18.8598 36.7422Z" fill="#FFCA28"/>
<path d="M27.7714 15.2314C25.8323 19.191 26.083 24.7329 28.9935 29.1799C29.322 29.7804 29.8836 29.4872 29.5975 28.8691C26.083 21.3491 29.7671 15.9308 29.7671 15.9308L27.7714 15.2314Z" fill="#EDA600"/>
<path d="M20.1455 0.382262C21.2122 0.103222 22.3496 0.127947 23.4552 0.385794C24.5536 0.650706 25.6521 1.20879 26.4681 2.12008C27.2663 3.02431 27.7573 4.12281 27.9233 5.27429C28.0787 6.41518 27.9339 7.59138 27.3935 8.56626C27.3299 7.47129 27.1392 6.46463 26.8178 5.53567C26.6517 5.07296 26.4575 4.63144 26.2208 4.21465C25.9877 3.80139 25.7122 3.39166 25.419 3.0561C24.8221 2.36733 24.0132 1.83044 23.1055 1.41365C22.1942 0.982728 21.2016 0.664834 20.1455 0.382262Z" fill="#B0BEC5"/>
<path d="M20.4387 3.73077C21.0285 3.35636 21.7668 3.27865 22.4626 3.40228C23.1655 3.5259 23.8366 3.87558 24.3664 4.35949C24.8927 4.85046 25.2671 5.46858 25.5002 6.11144C25.6133 6.43286 25.6698 6.77195 25.7228 7.10044C25.7404 7.43953 25.7404 7.77861 25.6874 8.1177C25.4437 7.85985 25.253 7.602 25.0729 7.35122C24.8645 7.11457 24.702 6.86379 24.5148 6.6342C24.1474 6.17855 23.7907 5.76529 23.4057 5.39794C23.0101 5.04119 22.5933 4.72683 22.1094 4.45486C21.629 4.17582 21.0886 3.94269 20.4387 3.73077Z" fill="#90A4AE"/>
<path d="M0.245368 26.1105C0.743401 27.0853 1.26263 27.9896 1.86663 28.7878C2.46709 29.5861 3.15586 30.2643 3.95766 30.7058C4.3462 30.9213 4.80891 31.1085 5.26102 31.2498C5.71667 31.3946 6.18998 31.4935 6.67742 31.5606C7.65229 31.6807 8.67662 31.6595 9.76099 31.4935C8.92033 32.2246 7.79711 32.6132 6.65269 32.6979C5.49415 32.7756 4.31794 32.5249 3.26536 31.9315C2.20571 31.3275 1.42864 30.3667 0.941202 29.3459C0.453765 28.3181 0.192386 27.2125 0.245368 26.1105Z" fill="#B0BEC5"/>
<path d="M3.58325 25.6972C3.92587 26.2906 4.26496 26.7674 4.63583 27.1842C5.00318 27.601 5.39878 27.9437 5.8297 28.2545C6.26769 28.5547 6.74806 28.8196 7.27082 29.0845C7.5322 29.2188 7.81124 29.3247 8.08675 29.4801C8.37285 29.6038 8.66249 29.7345 8.96625 29.9217C8.64483 30.0418 8.31634 30.1124 7.98078 30.1654C7.64876 30.1795 7.30614 30.1972 6.96705 30.1512C6.28888 30.0594 5.61071 29.8228 5.01731 29.4095C4.4345 28.9892 3.9506 28.4064 3.68568 27.7459C3.41724 27.0889 3.33953 26.3542 3.58325 25.6972Z" fill="#90A4AE"/>
</svg>
