<svg width="37" height="37" viewBox="0 0 37 37" fill="none" xmlns="http://www.w3.org/2000/svg">
<path d="M18.5 36.6346C28.4411 36.6346 36.5 28.5758 36.5 18.6346C36.5 8.69352 28.4411 0.634644 18.5 0.634644C8.55887 0.634644 0.5 8.69352 0.5 18.6346C0.5 28.5758 8.55887 36.6346 18.5 36.6346Z" fill="#FFCC4D"/>
<path d="M18.5 21.6347C14.877 21.6347 12.473 21.2127 9.5 20.6347C8.821 20.5037 7.5 20.6347 7.5 22.6347C7.5 26.6347 12.095 31.6347 18.5 31.6347C24.904 31.6347 29.5 26.6347 29.5 22.6347C29.5 20.6347 28.179 20.5027 27.5 20.6347C24.527 21.2127 22.123 21.6347 18.5 21.6347Z" fill="#664500"/>
<path d="M9.5 22.6346C9.5 22.6346 12.5 23.6346 18.5 23.6346C24.5 23.6346 27.5 22.6346 27.5 22.6346C27.5 22.6346 25.5 26.6346 18.5 26.6346C11.5 26.6346 9.5 22.6346 9.5 22.6346Z" fill="white"/>
<path d="M12.5 17.6346C13.8807 17.6346 15 16.0676 15 14.1346C15 12.2016 13.8807 10.6346 12.5 10.6346C11.1193 10.6346 10 12.2016 10 14.1346C10 16.0676 11.1193 17.6346 12.5 17.6346Z" fill="#664500"/>
<path d="M24.5 17.6346C25.8807 17.6346 27 16.0676 27 14.1346C27 12.2016 25.8807 10.6346 24.5 10.6346C23.1193 10.6346 22 12.2016 22 14.1346C22 16.0676 23.1193 17.6346 24.5 17.6346Z" fill="#664500"/>
</svg>
