<svg width="131" height="37" viewBox="0 0 131 37" fill="none" xmlns="http://www.w3.org/2000/svg">
<rect x="0.5" y="0.684875" width="130" height="36" rx="10" fill="#999999"/>
<path d="M25.472 11.8649L25.192 13.8249H20.092V17.6849H24.532V19.6449H20.092V23.7049H25.552V25.6849H17.452V11.8649H25.472ZM33.4222 14.8049C34.3689 14.8049 35.1022 15.0915 35.6222 15.6649C36.1555 16.2249 36.4222 17.0115 36.4222 18.0249V25.6849H33.8622V18.4249C33.8622 17.7982 33.7489 17.3582 33.5222 17.1049C33.3089 16.8515 32.9889 16.7249 32.5622 16.7249C32.1222 16.7249 31.7222 16.8649 31.3622 17.1449C31.0155 17.4115 30.6755 17.8049 30.3422 18.3249V25.6849H27.7822V15.1049H30.0022L30.2022 16.4849C31.0689 15.3649 32.1422 14.8049 33.4222 14.8049ZM49.6233 14.8249C50.0099 14.8249 50.3633 14.8715 50.6833 14.9649L50.2433 17.4449C49.9233 17.3649 49.6099 17.3249 49.3033 17.3249C48.6766 17.3249 48.1833 17.5515 47.8233 18.0049C47.4633 18.4449 47.1766 19.1249 46.9633 20.0449V25.6849H44.4033V15.1049H46.6233L46.8633 17.1849C47.1166 16.4249 47.4833 15.8449 47.9633 15.4449C48.4433 15.0315 48.9966 14.8249 49.6233 14.8249ZM60.3489 20.1449C60.3489 20.2782 60.3289 20.6249 60.2889 21.1849H53.6489C53.7289 22.2115 53.9956 22.9449 54.4489 23.3849C54.9022 23.8249 55.5022 24.0449 56.2489 24.0449C56.7156 24.0449 57.1556 23.9715 57.5689 23.8249C57.9822 23.6649 58.4222 23.4249 58.8889 23.1049L59.9489 24.5649C58.7756 25.5115 57.4689 25.9849 56.0289 25.9849C54.4156 25.9849 53.1689 25.4915 52.2889 24.5049C51.4222 23.5182 50.9889 22.1715 50.9889 20.4649C50.9889 19.3849 51.1756 18.4182 51.5489 17.5649C51.9222 16.6982 52.4622 16.0249 53.1689 15.5449C53.8756 15.0515 54.7156 14.8049 55.6889 14.8049C57.1689 14.8049 58.3156 15.2782 59.1289 16.2249C59.9422 17.1582 60.3489 18.4649 60.3489 20.1449ZM57.8089 19.4049C57.8089 17.5515 57.1222 16.6249 55.7489 16.6249C55.1222 16.6249 54.6289 16.8582 54.2689 17.3249C53.9222 17.7782 53.7156 18.5115 53.6489 19.5249H57.8089V19.4049ZM71.0283 15.1049L67.5883 25.6849H64.5283L61.0283 15.1049H63.8083L66.0683 23.6249L68.3883 15.1049H71.0283ZM75.1664 15.1049V25.6849H72.6064V15.1049H75.1664ZM73.8664 9.74487C74.3464 9.74487 74.7331 9.89821 75.0264 10.2049C75.3331 10.4982 75.4864 10.8649 75.4864 11.3049C75.4864 11.7449 75.3331 12.1115 75.0264 12.4049C74.7331 12.6982 74.3464 12.8449 73.8664 12.8449C73.3997 12.8449 73.0131 12.6982 72.7064 12.4049C72.4131 12.1115 72.2664 11.7449 72.2664 11.3049C72.2664 10.8649 72.4131 10.4982 72.7064 10.2049C73.0131 9.89821 73.3997 9.74487 73.8664 9.74487ZM81.5909 14.8049C83.0176 14.8049 84.2709 15.2249 85.3509 16.0649L84.3509 17.5649C83.4443 16.9915 82.5576 16.7049 81.6909 16.7049C81.1843 16.7049 80.7909 16.8049 80.5109 17.0049C80.2309 17.1915 80.0909 17.4449 80.0909 17.7649C80.0909 18.0049 80.1509 18.2049 80.2709 18.3649C80.3909 18.5249 80.6043 18.6782 80.9109 18.8249C81.2309 18.9582 81.6976 19.1115 82.3109 19.2849C83.4576 19.5915 84.3043 19.9982 84.8509 20.5049C85.4109 21.0115 85.6909 21.7182 85.6909 22.6249C85.6909 23.6782 85.2643 24.5049 84.4109 25.1049C83.5576 25.6915 82.4976 25.9849 81.2309 25.9849C80.3643 25.9849 79.5709 25.8515 78.8509 25.5849C78.1443 25.3182 77.5309 24.9515 77.0109 24.4849L78.2909 23.0449C79.2109 23.7382 80.1709 24.0849 81.1709 24.0849C81.7443 24.0849 82.1976 23.9715 82.5309 23.7449C82.8776 23.5182 83.0509 23.2049 83.0509 22.8049C83.0509 22.4982 82.9843 22.2582 82.8509 22.0849C82.7309 21.8982 82.5043 21.7382 82.1709 21.6049C81.8509 21.4582 81.3443 21.2849 80.6509 21.0849C79.5709 20.7915 78.7776 20.3849 78.2709 19.8649C77.7643 19.3315 77.5109 18.6715 77.5109 17.8849C77.5109 17.2982 77.6776 16.7715 78.0109 16.3049C78.3576 15.8382 78.8376 15.4715 79.4509 15.2049C80.0776 14.9382 80.7909 14.8049 81.5909 14.8049ZM90.3227 15.1049V25.6849H87.7627V15.1049H90.3227ZM89.0227 9.74487C89.5027 9.74487 89.8893 9.89821 90.1827 10.2049C90.4893 10.4982 90.6427 10.8649 90.6427 11.3049C90.6427 11.7449 90.4893 12.1115 90.1827 12.4049C89.8893 12.6982 89.5027 12.8449 89.0227 12.8449C88.556 12.8449 88.1693 12.6982 87.8627 12.4049C87.5693 12.1115 87.4227 11.7449 87.4227 11.3049C87.4227 10.8649 87.5693 10.4982 87.8627 10.2049C88.1693 9.89821 88.556 9.74487 89.0227 9.74487ZM97.7272 14.8049C99.2872 14.8049 100.501 15.3049 101.367 16.3049C102.247 17.2915 102.687 18.6515 102.687 20.3849C102.687 21.4915 102.487 22.4715 102.087 23.3249C101.687 24.1649 101.114 24.8182 100.367 25.2849C99.6205 25.7515 98.7339 25.9849 97.7072 25.9849C96.1472 25.9849 94.9272 25.4915 94.0472 24.5049C93.1672 23.5049 92.7272 22.1315 92.7272 20.3849C92.7272 19.2782 92.9272 18.3049 93.3272 17.4649C93.7272 16.6249 94.3005 15.9715 95.0472 15.5049C95.8072 15.0382 96.7005 14.8049 97.7272 14.8049ZM97.7272 16.7449C96.1939 16.7449 95.4272 17.9582 95.4272 20.3849C95.4272 21.6382 95.6139 22.5649 95.9872 23.1649C96.3739 23.7515 96.9472 24.0449 97.7072 24.0449C98.4672 24.0449 99.0339 23.7449 99.4072 23.1449C99.7939 22.5449 99.9872 21.6249 99.9872 20.3849C99.9872 19.1449 99.7939 18.2315 99.4072 17.6449C99.0339 17.0449 98.4739 16.7449 97.7272 16.7449ZM99.2272 9.28487L100.267 11.2849L95.7472 13.0849L95.0272 11.7849L99.2272 9.28487ZM110.727 14.8049C111.674 14.8049 112.407 15.0915 112.927 15.6649C113.46 16.2249 113.727 17.0115 113.727 18.0249V25.6849H111.167V18.4249C111.167 17.7982 111.054 17.3582 110.827 17.1049C110.614 16.8515 110.294 16.7249 109.867 16.7249C109.427 16.7249 109.027 16.8649 108.667 17.1449C108.32 17.4115 107.98 17.8049 107.647 18.3249V25.6849H105.087V15.1049H107.307L107.507 16.4849C108.374 15.3649 109.447 14.8049 110.727 14.8049Z" fill="white"/>
</svg>
