<svg width="120" height="37" viewBox="0 0 120 37" fill="none" xmlns="http://www.w3.org/2000/svg">
<rect x="0.5" y="0.8172" width="119" height="36" rx="10" fill="#12BE91"/>
<path d="M24.9166 25.8172L24.0566 22.6172H19.4766L18.6166 25.8172H15.8766L20.1766 11.9972H23.4366L27.7166 25.8172H24.9166ZM19.9966 20.6172H23.5166L21.7566 14.0172L19.9966 20.6172ZM34.6567 14.9372C35.9901 14.9372 36.9767 15.4239 37.6167 16.3972C38.2567 17.3705 38.5767 18.7372 38.5767 20.4972C38.5767 21.5905 38.4101 22.5639 38.0767 23.4172C37.7567 24.2572 37.2767 24.9172 36.6367 25.3972C36.0101 25.8772 35.2634 26.1172 34.3967 26.1172C33.2767 26.1172 32.3901 25.7305 31.7367 24.9572V29.8972L29.1767 30.1772V15.2372H31.4167L31.5567 16.5372C31.9701 16.0039 32.4434 15.6039 32.9767 15.3372C33.5101 15.0705 34.0701 14.9372 34.6567 14.9372ZM33.6767 24.1572C35.1567 24.1572 35.8967 22.9439 35.8967 20.5172C35.8967 19.2239 35.7301 18.2905 35.3967 17.7172C35.0634 17.1439 34.5634 16.8572 33.8967 16.8572C33.4701 16.8572 33.0701 16.9905 32.6967 17.2572C32.3234 17.5105 32.0034 17.8572 31.7367 18.2972V23.0572C32.2301 23.7905 32.8767 24.1572 33.6767 24.1572ZM46.3108 14.9572C46.6974 14.9572 47.0508 15.0039 47.3708 15.0972L46.9308 17.5772C46.6108 17.4972 46.2974 17.4572 45.9908 17.4572C45.3641 17.4572 44.8708 17.6839 44.5108 18.1372C44.1508 18.5772 43.8641 19.2572 43.6508 20.1772V25.8172H41.0908V15.2372H43.3108L43.5508 17.3172C43.8041 16.5572 44.1708 15.9772 44.6508 15.5772C45.1308 15.1639 45.6841 14.9572 46.3108 14.9572ZM52.6764 14.9372C54.2364 14.9372 55.4497 15.4372 56.3164 16.4372C57.1964 17.4239 57.6364 18.7839 57.6364 20.5172C57.6364 21.6239 57.4364 22.6039 57.0364 23.4572C56.6364 24.2972 56.0631 24.9505 55.3164 25.4172C54.5697 25.8839 53.6831 26.1172 52.6564 26.1172C51.0964 26.1172 49.8764 25.6239 48.9964 24.6372C48.1164 23.6372 47.6764 22.2639 47.6764 20.5172C47.6764 19.4105 47.8764 18.4372 48.2764 17.5972C48.6764 16.7572 49.2497 16.1039 49.9964 15.6372C50.7564 15.1705 51.6497 14.9372 52.6764 14.9372ZM52.6764 16.8772C51.1431 16.8772 50.3764 18.0905 50.3764 20.5172C50.3764 21.7705 50.5631 22.6972 50.9364 23.2972C51.3231 23.8839 51.8964 24.1772 52.6564 24.1772C53.4164 24.1772 53.9831 23.8772 54.3564 23.2772C54.7431 22.6772 54.9364 21.7572 54.9364 20.5172C54.9364 19.2772 54.7431 18.3639 54.3564 17.7772C53.9831 17.1772 53.4231 16.8772 52.6764 16.8772ZM65.5161 14.9372C66.7428 14.9372 67.7028 15.4305 68.3961 16.4172C69.0894 17.3905 69.4361 18.7572 69.4361 20.5172C69.4361 21.6105 69.2628 22.5839 68.9161 23.4372C68.5828 24.2772 68.1028 24.9372 67.4761 25.4172C66.8494 25.8839 66.1094 26.1172 65.2561 26.1172C64.6828 26.1172 64.1561 25.9972 63.6761 25.7572C63.2094 25.5172 62.8028 25.1772 62.4561 24.7372L62.2961 25.8172H60.0361V10.9972L62.5961 10.7172V16.4372C62.9428 15.9572 63.3628 15.5905 63.8561 15.3372C64.3628 15.0705 64.9161 14.9372 65.5161 14.9372ZM64.5561 24.1972C65.2494 24.1972 65.7894 23.9039 66.1761 23.3172C66.5628 22.7172 66.7561 21.7839 66.7561 20.5172C66.7561 19.1839 66.5761 18.2439 66.2161 17.6972C65.8561 17.1372 65.3494 16.8572 64.6961 16.8572C63.8828 16.8572 63.1828 17.3372 62.5961 18.2972V22.9772C62.8228 23.3639 63.1028 23.6639 63.4361 23.8772C63.7828 24.0905 64.1561 24.1972 64.5561 24.1972ZM79.5748 23.0172C79.5748 23.4305 79.6348 23.7372 79.7548 23.9372C79.8882 24.1239 80.0948 24.2705 80.3748 24.3772L79.8348 26.0772C79.2348 26.0239 78.7415 25.8772 78.3548 25.6372C77.9815 25.3972 77.6948 25.0305 77.4948 24.5372C77.1348 25.0705 76.6815 25.4705 76.1348 25.7372C75.6015 25.9905 75.0015 26.1172 74.3348 26.1172C73.2815 26.1172 72.4482 25.8172 71.8348 25.2172C71.2215 24.6172 70.9148 23.8305 70.9148 22.8572C70.9148 21.7105 71.3282 20.8372 72.1548 20.2372C72.9948 19.6239 74.1882 19.3172 75.7348 19.3172H77.0548V18.7172C77.0548 18.0372 76.8948 17.5639 76.5748 17.2972C76.2682 17.0172 75.7682 16.8772 75.0748 16.8772C74.3015 16.8772 73.3682 17.0639 72.2748 17.4372L71.6748 15.6972C72.9948 15.1905 74.2748 14.9372 75.5148 14.9372C78.2215 14.9372 79.5748 16.1505 79.5748 18.5772V23.0172ZM75.0148 24.2572C75.8815 24.2572 76.5615 23.8239 77.0548 22.9572V20.8172H75.9948C74.3415 20.8172 73.5148 21.4305 73.5148 22.6572C73.5148 23.1639 73.6415 23.5572 73.8948 23.8372C74.1482 24.1172 74.5215 24.2572 75.0148 24.2572ZM91.5728 10.9972V25.8172H89.3128L89.1328 24.4772C88.7995 24.9839 88.3728 25.3839 87.8528 25.6772C87.3461 25.9705 86.7661 26.1172 86.1128 26.1172C84.8195 26.1172 83.8261 25.6172 83.1328 24.6172C82.4395 23.6172 82.0928 22.2572 82.0928 20.5372C82.0928 19.4572 82.2661 18.4972 82.6128 17.6572C82.9595 16.8039 83.4528 16.1372 84.0928 15.6572C84.7461 15.1772 85.4995 14.9372 86.3528 14.9372C87.3661 14.9372 88.2528 15.3172 89.0128 16.0772V10.7172L91.5728 10.9972ZM86.8328 24.1772C87.2861 24.1772 87.6861 24.0705 88.0328 23.8572C88.3795 23.6305 88.7061 23.2839 89.0128 22.8172V17.9772C88.7061 17.6039 88.3928 17.3239 88.0728 17.1372C87.7661 16.9505 87.4061 16.8572 86.9928 16.8572C86.3128 16.8572 85.7728 17.1639 85.3728 17.7772C84.9861 18.3772 84.7928 19.2905 84.7928 20.5172C84.7928 21.8239 84.9661 22.7639 85.3128 23.3372C85.6595 23.8972 86.1661 24.1772 86.8328 24.1772ZM102.465 23.0172C102.465 23.4305 102.525 23.7372 102.645 23.9372C102.779 24.1239 102.985 24.2705 103.265 24.3772L102.725 26.0772C102.125 26.0239 101.632 25.8772 101.245 25.6372C100.872 25.3972 100.585 25.0305 100.385 24.5372C100.025 25.0705 99.5721 25.4705 99.0255 25.7372C98.4921 25.9905 97.8921 26.1172 97.2255 26.1172C96.1721 26.1172 95.3388 25.8172 94.7255 25.2172C94.1121 24.6172 93.8055 23.8305 93.8055 22.8572C93.8055 21.7105 94.2188 20.8372 95.0455 20.2372C95.8855 19.6239 97.0788 19.3172 98.6255 19.3172H99.9455V18.7172C99.9455 18.0372 99.7855 17.5639 99.4655 17.2972C99.1588 17.0172 98.6588 16.8772 97.9655 16.8772C97.1921 16.8772 96.2588 17.0639 95.1655 17.4372L94.5655 15.6972C95.8855 15.1905 97.1655 14.9372 98.4055 14.9372C101.112 14.9372 102.465 16.1505 102.465 18.5772V23.0172ZM97.9055 24.2572C98.7721 24.2572 99.4521 23.8239 99.9455 22.9572V20.8172H98.8855C97.2321 20.8172 96.4055 21.4305 96.4055 22.6572C96.4055 23.1639 96.5321 23.5572 96.7855 23.8372C97.0388 24.1172 97.4121 24.2572 97.9055 24.2572Z" fill="white"/>
</svg>
