<svg width="48" height="49" viewBox="0 0 48 49" fill="none" xmlns="http://www.w3.org/2000/svg">
<path d="M13.3753 0.833054C6.08531 0.833054 0.17355 6.74481 0.17355 14.0348V35.1577C0.17355 42.4477 6.08531 48.3595 13.3753 48.3595H34.4982C41.7882 48.3595 47.7 42.4477 47.7 35.1577V14.0348C47.7 6.74481 41.7882 0.833054 34.4982 0.833054H13.3753ZM39.7789 6.11377C41.2364 6.11377 42.4193 7.29665 42.4193 8.75413C42.4193 10.2116 41.2364 11.3945 39.7789 11.3945C38.3214 11.3945 37.1386 10.2116 37.1386 8.75413C37.1386 7.29665 38.3214 6.11377 39.7789 6.11377ZM23.9368 11.3945C31.2268 11.3945 37.1386 17.3062 37.1386 24.5963C37.1386 31.8863 31.2268 37.7981 23.9368 37.7981C16.6467 37.7981 10.735 31.8863 10.735 24.5963C10.735 17.3062 16.6467 11.3945 23.9368 11.3945ZM23.9368 16.6752C21.836 16.6752 19.8212 17.5097 18.3357 18.9952C16.8502 20.4807 16.0157 22.4955 16.0157 24.5963C16.0157 26.6971 16.8502 28.7118 18.3357 30.1973C19.8212 31.6828 21.836 32.5173 23.9368 32.5173C26.0376 32.5173 28.0523 31.6828 29.5378 30.1973C31.0233 28.7118 31.8578 26.6971 31.8578 24.5963C31.8578 22.4955 31.0233 20.4807 29.5378 18.9952C28.0523 17.5097 26.0376 16.6752 23.9368 16.6752Z" fill="#4A90FF"/>
</svg>
