<svg width="228" height="37" viewBox="0 0 228 37" fill="none" xmlns="http://www.w3.org/2000/svg">
<rect x="0.5" y="0.725891" width="227" height="36" rx="10" fill="#999999"/>
<path d="M21.163 11.9459C22.8696 11.9459 24.1896 12.3059 25.123 13.0259C26.0563 13.7326 26.523 14.7926 26.523 16.2059C26.523 17.7126 26.0363 18.8326 25.063 19.5659C24.0896 20.2992 22.7963 20.6659 21.183 20.6659H19.443V25.7259H17.543V11.9459H21.163ZM21.103 19.1659C22.2096 19.1659 23.0496 18.9526 23.623 18.5259C24.2096 18.0992 24.503 17.3326 24.503 16.2259C24.503 15.2392 24.2096 14.5259 23.623 14.0859C23.0496 13.6459 22.223 13.4259 21.143 13.4259H19.443V19.1659H21.103ZM36.4186 20.1459C36.4186 20.4526 36.4053 20.7659 36.3786 21.0859H29.6586C29.7386 22.2459 30.0319 23.0992 30.5386 23.6459C31.0453 24.1926 31.6986 24.4659 32.4986 24.4659C33.0053 24.4659 33.4719 24.3926 33.8986 24.2459C34.3253 24.0992 34.7719 23.8659 35.2386 23.5459L36.0386 24.6459C34.9186 25.5259 33.6919 25.9659 32.3586 25.9659C30.8919 25.9659 29.7453 25.4859 28.9186 24.5259C28.1053 23.5659 27.6986 22.2459 27.6986 20.5659C27.6986 19.4726 27.8719 18.5059 28.2186 17.6659C28.5786 16.8126 29.0853 16.1459 29.7386 15.6659C30.4053 15.1859 31.1853 14.9459 32.0786 14.9459C33.4786 14.9459 34.5519 15.4059 35.2986 16.3259C36.0453 17.2459 36.4186 18.5192 36.4186 20.1459ZM34.5986 19.6059C34.5986 18.5659 34.3919 17.7726 33.9786 17.2259C33.5653 16.6792 32.9453 16.4059 32.1186 16.4059C30.6119 16.4059 29.7919 17.5126 29.6586 19.7259H34.5986V19.6059ZM44.317 14.9459C45.277 14.9459 46.0237 15.2326 46.557 15.8059C47.1037 16.3792 47.377 17.1659 47.377 18.1659V25.7259H45.537V18.4259C45.537 17.6792 45.397 17.1526 45.117 16.8459C44.837 16.5392 44.4237 16.3859 43.877 16.3859C43.317 16.3859 42.8237 16.5459 42.397 16.8659C41.9704 17.1859 41.5704 17.6459 41.197 18.2459V25.7259H39.357V15.1859H40.937L41.097 16.7459C41.4704 16.1859 41.9304 15.7459 42.477 15.4259C43.037 15.1059 43.6504 14.9459 44.317 14.9459ZM59.2358 10.9459V25.7259H57.6158L57.4358 24.2659C57.0891 24.7992 56.6558 25.2192 56.1358 25.5259C55.6158 25.8192 55.0358 25.9659 54.3958 25.9659C53.1424 25.9659 52.1624 25.4726 51.4558 24.4859C50.7624 23.4992 50.4158 22.1726 50.4158 20.5059C50.4158 19.4259 50.5824 18.4659 50.9158 17.6259C51.2491 16.7859 51.7291 16.1326 52.3558 15.6659C52.9824 15.1859 53.7158 14.9459 54.5558 14.9459C55.6358 14.9459 56.5824 15.3792 57.3958 16.2459V10.7259L59.2358 10.9459ZM54.7958 24.5059C55.3558 24.5059 55.8358 24.3792 56.2358 24.1259C56.6358 23.8592 57.0224 23.4659 57.3958 22.9459V17.7859C57.0491 17.3326 56.6758 16.9926 56.2758 16.7659C55.8891 16.5259 55.4491 16.4059 54.9558 16.4059C54.1424 16.4059 53.5091 16.7459 53.0558 17.4259C52.6158 18.1059 52.3958 19.1192 52.3958 20.4659C52.3958 21.8259 52.6024 22.8392 53.0158 23.5059C53.4291 24.1726 54.0224 24.5059 54.7958 24.5059ZM64.8689 15.1859V25.7259H63.0289V15.1859H64.8689ZM63.9289 10.1259C64.3156 10.1259 64.6289 10.2459 64.8689 10.4859C65.1089 10.7259 65.2289 11.0259 65.2289 11.3859C65.2289 11.7459 65.1089 12.0459 64.8689 12.2859C64.6289 12.5126 64.3156 12.6259 63.9289 12.6259C63.5556 12.6259 63.2489 12.5126 63.0089 12.2859C62.7689 12.0459 62.6489 11.7459 62.6489 11.3859C62.6489 11.0259 62.7689 10.7259 63.0089 10.4859C63.2489 10.2459 63.5556 10.1259 63.9289 10.1259ZM76.6334 20.1459C76.6334 20.4526 76.6201 20.7659 76.5934 21.0859H69.8734C69.9534 22.2459 70.2468 23.0992 70.7534 23.6459C71.2601 24.1926 71.9134 24.4659 72.7134 24.4659C73.2201 24.4659 73.6868 24.3926 74.1134 24.2459C74.5401 24.0992 74.9868 23.8659 75.4534 23.5459L76.2534 24.6459C75.1334 25.5259 73.9068 25.9659 72.5734 25.9659C71.1068 25.9659 69.9601 25.4859 69.1334 24.5259C68.3201 23.5659 67.9134 22.2459 67.9134 20.5659C67.9134 19.4726 68.0868 18.5059 68.4334 17.6659C68.7934 16.8126 69.3001 16.1459 69.9534 15.6659C70.6201 15.1859 71.4001 14.9459 72.2934 14.9459C73.6934 14.9459 74.7668 15.4059 75.5134 16.3259C76.2601 17.2459 76.6334 18.5192 76.6334 20.1459ZM74.8134 19.6059C74.8134 18.5659 74.6068 17.7726 74.1934 17.2259C73.7801 16.6792 73.1601 16.4059 72.3334 16.4059C70.8268 16.4059 70.0068 17.5126 69.8734 19.7259H74.8134V19.6059ZM84.5319 14.9459C85.4919 14.9459 86.2385 15.2326 86.7719 15.8059C87.3185 16.3792 87.5919 17.1659 87.5919 18.1659V25.7259H85.7519V18.4259C85.7519 17.6792 85.6119 17.1526 85.3319 16.8459C85.0519 16.5392 84.6385 16.3859 84.0919 16.3859C83.5319 16.3859 83.0385 16.5459 82.6119 16.8659C82.1852 17.1859 81.7852 17.6459 81.4119 18.2459V25.7259H79.5719V15.1859H81.1519L81.3119 16.7459C81.6852 16.1859 82.1452 15.7459 82.6919 15.4259C83.2519 15.1059 83.8652 14.9459 84.5319 14.9459ZM96.6106 25.2459C95.9173 25.7259 95.1306 25.9659 94.2506 25.9659C93.3573 25.9659 92.6573 25.7126 92.1506 25.2059C91.6573 24.6859 91.4106 23.9392 91.4106 22.9659V16.6059H89.5706V15.1859H91.4106V12.8059L93.2506 12.5859V15.1859H95.7506L95.5506 16.6059H93.2506V22.8859C93.2506 23.4326 93.344 23.8326 93.5306 24.0859C93.7306 24.3259 94.0573 24.4459 94.5106 24.4459C94.924 24.4459 95.3906 24.3059 95.9106 24.0259L96.6106 25.2459ZM106.184 20.1459C106.184 20.4526 106.171 20.7659 106.144 21.0859H99.4242C99.5042 22.2459 99.7976 23.0992 100.304 23.6459C100.811 24.1926 101.464 24.4659 102.264 24.4659C102.771 24.4659 103.238 24.3926 103.664 24.2459C104.091 24.0992 104.538 23.8659 105.004 23.5459L105.804 24.6459C104.684 25.5259 103.458 25.9659 102.124 25.9659C100.658 25.9659 99.5109 25.4859 98.6842 24.5259C97.8709 23.5659 97.4642 22.2459 97.4642 20.5659C97.4642 19.4726 97.6376 18.5059 97.9842 17.6659C98.3442 16.8126 98.8509 16.1459 99.5042 15.6659C100.171 15.1859 100.951 14.9459 101.844 14.9459C103.244 14.9459 104.318 15.4059 105.064 16.3259C105.811 17.2459 106.184 18.5192 106.184 20.1459ZM104.364 19.6059C104.364 18.5659 104.158 17.7726 103.744 17.2259C103.331 16.6792 102.711 16.4059 101.884 16.4059C100.378 16.4059 99.5576 17.5126 99.4242 19.7259H104.364V19.6059ZM122.576 10.9459V25.7259H120.956L120.776 24.2659C120.429 24.7992 119.996 25.2192 119.476 25.5259C118.956 25.8192 118.376 25.9659 117.736 25.9659C116.482 25.9659 115.502 25.4726 114.796 24.4859C114.102 23.4992 113.756 22.1726 113.756 20.5059C113.756 19.4259 113.922 18.4659 114.256 17.6259C114.589 16.7859 115.069 16.1326 115.696 15.6659C116.322 15.1859 117.056 14.9459 117.896 14.9459C118.976 14.9459 119.922 15.3792 120.736 16.2459V10.7259L122.576 10.9459ZM118.136 24.5059C118.696 24.5059 119.176 24.3792 119.576 24.1259C119.976 23.8592 120.362 23.4659 120.736 22.9459V17.7859C120.389 17.3326 120.016 16.9926 119.616 16.7659C119.229 16.5259 118.789 16.4059 118.296 16.4059C117.482 16.4059 116.849 16.7459 116.396 17.4259C115.956 18.1059 115.736 19.1192 115.736 20.4659C115.736 21.8259 115.942 22.8392 116.356 23.5059C116.769 24.1726 117.362 24.5059 118.136 24.5059ZM134.329 20.1459C134.329 20.4526 134.315 20.7659 134.289 21.0859H127.569C127.649 22.2459 127.942 23.0992 128.449 23.6459C128.955 24.1926 129.609 24.4659 130.409 24.4659C130.915 24.4659 131.382 24.3926 131.809 24.2459C132.235 24.0992 132.682 23.8659 133.149 23.5459L133.949 24.6459C132.829 25.5259 131.602 25.9659 130.269 25.9659C128.802 25.9659 127.655 25.4859 126.829 24.5259C126.015 23.5659 125.609 22.2459 125.609 20.5659C125.609 19.4726 125.782 18.5059 126.129 17.6659C126.489 16.8126 126.995 16.1459 127.649 15.6659C128.315 15.1859 129.095 14.9459 129.989 14.9459C131.389 14.9459 132.462 15.4059 133.209 16.3259C133.955 17.2459 134.329 18.5192 134.329 20.1459ZM132.509 19.6059C132.509 18.5659 132.302 17.7726 131.889 17.2259C131.475 16.6792 130.855 16.4059 130.029 16.4059C128.522 16.4059 127.702 17.5126 127.569 19.7259H132.509V19.6059ZM147.14 14.9459C147.513 14.9459 147.86 14.9859 148.18 15.0659L147.84 16.8659C147.52 16.7859 147.213 16.7459 146.92 16.7459C146.267 16.7459 145.74 16.9859 145.34 17.4659C144.94 17.9459 144.627 18.6926 144.4 19.7059V25.7259H142.56V15.1859H144.14L144.32 17.3259C144.6 16.5392 144.98 15.9459 145.46 15.5459C145.94 15.1459 146.5 14.9459 147.14 14.9459ZM157.63 20.1459C157.63 20.4526 157.616 20.7659 157.59 21.0859H150.87C150.95 22.2459 151.243 23.0992 151.75 23.6459C152.256 24.1926 152.91 24.4659 153.71 24.4659C154.216 24.4659 154.683 24.3926 155.11 24.2459C155.536 24.0992 155.983 23.8659 156.45 23.5459L157.25 24.6459C156.13 25.5259 154.903 25.9659 153.57 25.9659C152.103 25.9659 150.956 25.4859 150.13 24.5259C149.316 23.5659 148.91 22.2459 148.91 20.5659C148.91 19.4726 149.083 18.5059 149.43 17.6659C149.79 16.8126 150.296 16.1459 150.95 15.6659C151.616 15.1859 152.396 14.9459 153.29 14.9459C154.69 14.9459 155.763 15.4059 156.51 16.3259C157.256 17.2459 157.63 18.5192 157.63 20.1459ZM155.81 19.6059C155.81 18.5659 155.603 17.7726 155.19 17.2259C154.776 16.6792 154.156 16.4059 153.33 16.4059C151.823 16.4059 151.003 17.5126 150.87 19.7259H155.81V19.6059ZM168.23 15.1859L164.65 25.7259H162.43L158.79 15.1859H160.79L163.55 24.0859L166.29 15.1859H168.23ZM172.174 15.1859V25.7259H170.334V15.1859H172.174ZM171.234 10.1259C171.62 10.1259 171.934 10.2459 172.174 10.4859C172.414 10.7259 172.534 11.0259 172.534 11.3859C172.534 11.7459 172.414 12.0459 172.174 12.2859C171.934 12.5126 171.62 12.6259 171.234 12.6259C170.86 12.6259 170.554 12.5126 170.314 12.2859C170.074 12.0459 169.954 11.7459 169.954 11.3859C169.954 11.0259 170.074 10.7259 170.314 10.4859C170.554 10.2459 170.86 10.1259 171.234 10.1259ZM178.838 14.9459C179.558 14.9459 180.205 15.0459 180.778 15.2459C181.351 15.4459 181.898 15.7459 182.418 16.1459L181.638 17.3059C181.158 16.9992 180.698 16.7726 180.258 16.6259C179.831 16.4792 179.378 16.4059 178.898 16.4059C178.298 16.4059 177.825 16.5326 177.478 16.7859C177.131 17.0259 176.958 17.3592 176.958 17.7859C176.958 18.2126 177.118 18.5459 177.438 18.7859C177.771 19.0259 178.365 19.2592 179.218 19.4859C180.391 19.7792 181.265 20.1792 181.838 20.6859C182.425 21.1926 182.718 21.8859 182.718 22.7659C182.718 23.8059 182.311 24.5992 181.498 25.1459C180.698 25.6926 179.718 25.9659 178.558 25.9659C176.958 25.9659 175.631 25.5059 174.578 24.5859L175.558 23.4659C176.451 24.1459 177.438 24.4859 178.518 24.4859C179.211 24.4859 179.758 24.3459 180.158 24.0659C180.571 23.7726 180.778 23.3792 180.778 22.8859C180.778 22.5259 180.705 22.2392 180.558 22.0259C180.411 21.7992 180.158 21.6059 179.798 21.4459C179.438 21.2726 178.911 21.0926 178.218 20.9059C177.098 20.6126 176.285 20.2192 175.778 19.7259C175.285 19.2326 175.038 18.6059 175.038 17.8459C175.038 17.2992 175.198 16.8059 175.518 16.3659C175.851 15.9126 176.305 15.5659 176.878 15.3259C177.465 15.0726 178.118 14.9459 178.838 14.9459ZM187.154 15.1859V25.7259H185.314V15.1859H187.154ZM186.214 10.1259C186.601 10.1259 186.914 10.2459 187.154 10.4859C187.394 10.7259 187.514 11.0259 187.514 11.3859C187.514 11.7459 187.394 12.0459 187.154 12.2859C186.914 12.5126 186.601 12.6259 186.214 12.6259C185.841 12.6259 185.534 12.5126 185.294 12.2859C185.054 12.0459 184.934 11.7459 184.934 11.3859C184.934 11.0259 185.054 10.7259 185.294 10.4859C185.534 10.2459 185.841 10.1259 186.214 10.1259ZM194.919 14.9459C196.399 14.9459 197.545 15.4392 198.359 16.4259C199.185 17.4126 199.599 18.7526 199.599 20.4459C199.599 21.5392 199.412 22.5059 199.039 23.3459C198.665 24.1726 198.125 24.8192 197.419 25.2859C196.712 25.7392 195.872 25.9659 194.899 25.9659C193.419 25.9659 192.265 25.4726 191.439 24.4859C190.612 23.4992 190.199 22.1592 190.199 20.4659C190.199 19.3726 190.385 18.4126 190.759 17.5859C191.132 16.7459 191.672 16.0992 192.379 15.6459C193.085 15.1792 193.932 14.9459 194.919 14.9459ZM194.919 16.4259C193.092 16.4259 192.179 17.7726 192.179 20.4659C192.179 23.1459 193.085 24.4859 194.899 24.4859C196.712 24.4859 197.619 23.1392 197.619 20.4459C197.619 17.7659 196.719 16.4259 194.919 16.4259ZM196.479 9.70589L197.299 11.2459L193.059 12.9659L192.499 11.9859L196.479 9.70589ZM207.598 14.9459C208.558 14.9459 209.305 15.2326 209.838 15.8059C210.385 16.3792 210.658 17.1659 210.658 18.1659V25.7259H208.818V18.4259C208.818 17.6792 208.678 17.1526 208.398 16.8459C208.118 16.5392 207.705 16.3859 207.158 16.3859C206.598 16.3859 206.105 16.5459 205.678 16.8659C205.252 17.1859 204.852 17.6459 204.478 18.2459V25.7259H202.638V15.1859H204.218L204.378 16.7459C204.752 16.1859 205.212 15.7459 205.758 15.4259C206.318 15.1059 206.932 14.9459 207.598 14.9459Z" fill="white"/>
</svg>
