<svg width="129" height="37" viewBox="0 0 129 37" fill="none" xmlns="http://www.w3.org/2000/svg">
<rect x="0.5" y="0.666504" width="128" height="36" rx="10" fill="#FF3A3A"/>
<path d="M21.69 20.1265H20.01V25.6665H17.37V11.8465H21.49C25.1433 11.8465 26.97 13.1998 26.97 15.9065C26.97 16.8265 26.7433 17.5865 26.29 18.1865C25.8367 18.7865 25.13 19.2732 24.17 19.6465L27.79 25.6665H24.75L21.69 20.1265ZM20.01 18.2265H21.65C22.49 18.2265 23.1233 18.0465 23.55 17.6865C23.99 17.3132 24.21 16.7198 24.21 15.9065C24.21 15.1598 23.9833 14.6198 23.53 14.2865C23.09 13.9398 22.39 13.7665 21.43 13.7665H20.01V18.2265ZM37.9036 20.1265C37.9036 20.2598 37.8836 20.6065 37.8436 21.1665H31.2036C31.2836 22.1932 31.5503 22.9265 32.0036 23.3665C32.4569 23.8065 33.0569 24.0265 33.8036 24.0265C34.2703 24.0265 34.7103 23.9532 35.1236 23.8065C35.5369 23.6465 35.9769 23.4065 36.4436 23.0865L37.5036 24.5465C36.3303 25.4932 35.0236 25.9665 33.5836 25.9665C31.9703 25.9665 30.7236 25.4732 29.8436 24.4865C28.9769 23.4998 28.5436 22.1532 28.5436 20.4465C28.5436 19.3665 28.7303 18.3998 29.1036 17.5465C29.4769 16.6798 30.0169 16.0065 30.7236 15.5265C31.4303 15.0332 32.2703 14.7865 33.2436 14.7865C34.7236 14.7865 35.8703 15.2598 36.6836 16.2065C37.4969 17.1398 37.9036 18.4465 37.9036 20.1265ZM35.3636 19.3865C35.3636 17.5332 34.6769 16.6065 33.3036 16.6065C32.6769 16.6065 32.1836 16.8398 31.8236 17.3065C31.4769 17.7598 31.2703 18.4932 31.2036 19.5065H35.3636V19.3865ZM44.4602 14.7865C45.1535 14.7865 45.7735 14.8865 46.3202 15.0865C46.8802 15.2865 47.4068 15.5998 47.9002 16.0265L46.7602 17.5665C46.4002 17.2998 46.0535 17.1065 45.7202 16.9865C45.3868 16.8665 45.0202 16.8065 44.6202 16.8065C43.0335 16.8065 42.2402 18.0132 42.2402 20.4265C42.2402 21.6532 42.4468 22.5398 42.8602 23.0865C43.2735 23.6198 43.8602 23.8865 44.6202 23.8865C44.9935 23.8865 45.3335 23.8265 45.6402 23.7065C45.9602 23.5865 46.3335 23.3932 46.7602 23.1265L47.9002 24.7465C46.9002 25.5598 45.7602 25.9665 44.4802 25.9665C43.4668 25.9665 42.5868 25.7465 41.8402 25.3065C41.0935 24.8532 40.5202 24.2132 40.1202 23.3865C39.7202 22.5598 39.5202 21.5865 39.5202 20.4665C39.5202 19.3465 39.7202 18.3598 40.1202 17.5065C40.5202 16.6398 41.0935 15.9732 41.8402 15.5065C42.5868 15.0265 43.4602 14.7865 44.4602 14.7865ZM55.3909 14.7865C56.3243 14.7865 57.0576 15.0732 57.5909 15.6465C58.1243 16.2198 58.3909 17.0065 58.3909 18.0065V25.6665H55.8309V18.4065C55.8309 17.7798 55.7176 17.3398 55.4909 17.0865C55.2776 16.8332 54.9576 16.7065 54.5309 16.7065C54.1043 16.7065 53.7109 16.8465 53.3509 17.1265C52.9909 17.3932 52.6443 17.7798 52.3109 18.2865V25.6665H49.7509V10.8665L52.3109 10.6065V16.3465C53.1643 15.3065 54.1909 14.7865 55.3909 14.7865ZM69.192 22.8665C69.192 23.2798 69.252 23.5865 69.372 23.7865C69.5054 23.9732 69.712 24.1198 69.992 24.2265L69.452 25.9265C68.852 25.8732 68.3587 25.7265 67.972 25.4865C67.5987 25.2465 67.312 24.8798 67.112 24.3865C66.752 24.9198 66.2987 25.3198 65.752 25.5865C65.2187 25.8398 64.6187 25.9665 63.952 25.9665C62.8987 25.9665 62.0654 25.6665 61.452 25.0665C60.8387 24.4665 60.532 23.6798 60.532 22.7065C60.532 21.5598 60.9454 20.6865 61.772 20.0865C62.612 19.4732 63.8054 19.1665 65.352 19.1665H66.672V18.5665C66.672 17.8865 66.512 17.4132 66.192 17.1465C65.8854 16.8665 65.3854 16.7265 64.692 16.7265C63.9187 16.7265 62.9854 16.9132 61.892 17.2865L61.292 15.5465C62.612 15.0398 63.892 14.7865 65.132 14.7865C67.8387 14.7865 69.192 15.9998 69.192 18.4265V22.8665ZM64.632 24.1065C65.4987 24.1065 66.1787 23.6732 66.672 22.8065V20.6665H65.612C63.9587 20.6665 63.132 21.2798 63.132 22.5065C63.132 23.0132 63.2587 23.4065 63.512 23.6865C63.7654 23.9665 64.1387 24.1065 64.632 24.1065ZM79.17 15.0865V16.9265L74.05 23.6665H79.27L79.01 25.6665H71.11V23.8265L76.25 17.0865H71.55V15.0865H79.17ZM88.8014 22.8665C88.8014 23.2798 88.8614 23.5865 88.9814 23.7865C89.1147 23.9732 89.3214 24.1198 89.6014 24.2265L89.0614 25.9265C88.4614 25.8732 87.9681 25.7265 87.5814 25.4865C87.2081 25.2465 86.9214 24.8798 86.7214 24.3865C86.3614 24.9198 85.9081 25.3198 85.3614 25.5865C84.8281 25.8398 84.2281 25.9665 83.5614 25.9665C82.5081 25.9665 81.6747 25.6665 81.0614 25.0665C80.4481 24.4665 80.1414 23.6798 80.1414 22.7065C80.1414 21.5598 80.5547 20.6865 81.3814 20.0865C82.2214 19.4732 83.4147 19.1665 84.9614 19.1665H86.2814V18.5665C86.2814 17.8865 86.1214 17.4132 85.8014 17.1465C85.4947 16.8665 84.9947 16.7265 84.3014 16.7265C83.5281 16.7265 82.5947 16.9132 81.5014 17.2865L80.9014 15.5465C82.2214 15.0398 83.5014 14.7865 84.7414 14.7865C87.4481 14.7865 88.8014 15.9998 88.8014 18.4265V22.8665ZM84.2414 24.1065C85.1081 24.1065 85.7881 23.6732 86.2814 22.8065V20.6665H85.2214C83.5681 20.6665 82.7414 21.2798 82.7414 22.5065C82.7414 23.0132 82.8681 23.4065 83.1214 23.6865C83.3747 23.9665 83.7481 24.1065 84.2414 24.1065ZM100.799 10.8465V25.6665H98.5394L98.3594 24.3265C98.026 24.8332 97.5994 25.2332 97.0794 25.5265C96.5727 25.8198 95.9927 25.9665 95.3394 25.9665C94.046 25.9665 93.0527 25.4665 92.3594 24.4665C91.666 23.4665 91.3194 22.1065 91.3194 20.3865C91.3194 19.3065 91.4927 18.3465 91.8394 17.5065C92.186 16.6532 92.6794 15.9865 93.3194 15.5065C93.9727 15.0265 94.726 14.7865 95.5794 14.7865C96.5927 14.7865 97.4794 15.1665 98.2394 15.9265V10.5665L100.799 10.8465ZM96.0594 24.0265C96.5127 24.0265 96.9127 23.9198 97.2594 23.7065C97.606 23.4798 97.9327 23.1332 98.2394 22.6665V17.8265C97.9327 17.4532 97.6194 17.1732 97.2994 16.9865C96.9927 16.7998 96.6327 16.7065 96.2194 16.7065C95.5394 16.7065 94.9994 17.0132 94.5994 17.6265C94.2127 18.2265 94.0194 19.1398 94.0194 20.3665C94.0194 21.6732 94.1927 22.6132 94.5394 23.1865C94.886 23.7465 95.3927 24.0265 96.0594 24.0265ZM111.692 22.8665C111.692 23.2798 111.752 23.5865 111.872 23.7865C112.005 23.9732 112.212 24.1198 112.492 24.2265L111.952 25.9265C111.352 25.8732 110.859 25.7265 110.472 25.4865C110.099 25.2465 109.812 24.8798 109.612 24.3865C109.252 24.9198 108.799 25.3198 108.252 25.5865C107.719 25.8398 107.119 25.9665 106.452 25.9665C105.399 25.9665 104.565 25.6665 103.952 25.0665C103.339 24.4665 103.032 23.6798 103.032 22.7065C103.032 21.5598 103.445 20.6865 104.272 20.0865C105.112 19.4732 106.305 19.1665 107.852 19.1665H109.172V18.5665C109.172 17.8865 109.012 17.4132 108.692 17.1465C108.385 16.8665 107.885 16.7265 107.192 16.7265C106.419 16.7265 105.485 16.9132 104.392 17.2865L103.792 15.5465C105.112 15.0398 106.392 14.7865 107.632 14.7865C110.339 14.7865 111.692 15.9998 111.692 18.4265V22.8665ZM107.132 24.1065C107.999 24.1065 108.679 23.6732 109.172 22.8065V20.6665H108.112C106.459 20.6665 105.632 21.2798 105.632 22.5065C105.632 23.0132 105.759 23.4065 106.012 23.6865C106.265 23.9665 106.639 24.1065 107.132 24.1065Z" fill="white"/>
</svg>
