<svg width="152" height="55" viewBox="0 0 152 55" fill="none" xmlns="http://www.w3.org/2000/svg">
<g filter="url(#filter0_d_1_596)">
<rect x="4" y="0.713806" width="144" height="46" rx="10" fill="#4A90FF"/>
<path d="M29.7103 17.2758L26.0203 29.7138H23.1943L19.3963 17.2758H21.9523L24.6523 27.6078L27.2803 17.2758H29.7103ZM38.3225 17.2758L38.0705 19.0398H33.4805V22.5138H37.4765V24.2778H33.4805V27.9318H38.3945V29.7138H31.1045V17.2758H38.3225ZM44.5374 24.7278H43.0254V29.7138H40.6494V17.2758H44.3574C47.6454 17.2758 49.2894 18.4938 49.2894 20.9298C49.2894 21.7578 49.0854 22.4418 48.6774 22.9818C48.2694 23.5218 47.6334 23.9598 46.7694 24.2958L50.0274 29.7138H47.2914L44.5374 24.7278ZM43.0254 23.0178H44.5014C45.2574 23.0178 45.8274 22.8558 46.2114 22.5318C46.6074 22.1958 46.8054 21.6618 46.8054 20.9298C46.8054 20.2578 46.6014 19.7718 46.1934 19.4718C45.7974 19.1598 45.1674 19.0038 44.3034 19.0038H43.0254V23.0178ZM65.3333 29.7138H62.2553L57.9893 19.6518C58.0973 20.5398 58.1753 21.3438 58.2233 22.0638C58.2833 22.7838 58.3133 23.6418 58.3133 24.6378V29.7138H56.1533V17.2758H59.1593L63.4973 27.3558C63.4253 26.8758 63.3533 26.2458 63.2813 25.4658C63.2093 24.6738 63.1733 23.8878 63.1733 23.1078V17.2758H65.3333V29.7138ZM73.0171 17.0058C74.1331 17.0058 75.0991 17.2578 75.9151 17.7618C76.7311 18.2658 77.3551 19.0038 77.7871 19.9758C78.2311 20.9478 78.4531 22.1178 78.4531 23.4858C78.4531 24.8418 78.2311 26.0058 77.7871 26.9778C77.3431 27.9498 76.7131 28.6938 75.8971 29.2098C75.0811 29.7258 74.1211 29.9838 73.0171 29.9838C71.9011 29.9838 70.9351 29.7318 70.1191 29.2278C69.3031 28.7238 68.6731 27.9858 68.2291 27.0138C67.7851 26.0418 67.5631 24.8718 67.5631 23.5038C67.5631 22.1598 67.7851 21.0018 68.2291 20.0298C68.6731 19.0458 69.3031 18.2958 70.1191 17.7798C70.9471 17.2638 71.9131 17.0058 73.0171 17.0058ZM73.0171 18.8238C72.0571 18.8238 71.3251 19.2018 70.8211 19.9578C70.3171 20.7018 70.0651 21.8838 70.0651 23.5038C70.0651 26.6118 71.0491 28.1658 73.0171 28.1658C73.9771 28.1658 74.7031 27.7938 75.1951 27.0498C75.6991 26.3058 75.9511 25.1178 75.9511 23.4858C75.9511 21.8658 75.6991 20.6838 75.1951 19.9398C74.7031 19.1958 73.9771 18.8238 73.0171 18.8238ZM89.3705 17.2758L85.6805 29.7138H82.8545L79.0565 17.2758H81.6125L84.3125 27.6078L86.9405 17.2758H89.3705ZM97.9826 17.2758L97.7306 19.0398H93.1406V22.5138H97.1366V24.2778H93.1406V27.9318H98.0546V29.7138H90.7646V17.2758H97.9826ZM103.37 17.2758C105.302 17.2758 106.844 17.7138 107.996 18.5898C109.16 19.4658 109.742 21.0798 109.742 23.4318C109.742 25.7358 109.172 27.3618 108.032 28.3098C106.892 29.2458 105.446 29.7138 103.694 29.7138H100.31V17.2758H103.37ZM102.686 19.0578V27.9318H103.856C104.912 27.9318 105.74 27.6078 106.34 26.9598C106.94 26.2998 107.24 25.1238 107.24 23.4318C107.24 22.2558 107.084 21.3498 106.772 20.7138C106.472 20.0658 106.07 19.6278 105.566 19.3998C105.074 19.1718 104.48 19.0578 103.784 19.0578H102.686ZM118.394 29.7138L117.62 26.8338H113.498L112.724 29.7138H110.258L114.128 17.2758H117.062L120.914 29.7138H118.394ZM113.966 25.0338H117.134L115.55 19.0938L113.966 25.0338ZM125.36 17.2758C127.292 17.2758 128.834 17.7138 129.986 18.5898C131.15 19.4658 131.732 21.0798 131.732 23.4318C131.732 25.7358 131.162 27.3618 130.022 28.3098C128.882 29.2458 127.436 29.7138 125.684 29.7138H122.3V17.2758H125.36ZM124.676 19.0578V27.9318H125.846C126.902 27.9318 127.73 27.6078 128.33 26.9598C128.93 26.2998 129.23 25.1238 129.23 23.4318C129.23 22.2558 129.074 21.3498 128.762 20.7138C128.462 20.0658 128.06 19.6278 127.556 19.3998C127.064 19.1718 126.47 19.0578 125.774 19.0578H124.676Z" fill="white"/>
</g>
<defs>
<filter id="filter0_d_1_596" x="0" y="0.713806" width="152" height="54" filterUnits="userSpaceOnUse" color-interpolation-filters="sRGB">
<feFlood flood-opacity="0" result="BackgroundImageFix"/>
<feColorMatrix in="SourceAlpha" type="matrix" values="0 0 0 0 0 0 0 0 0 0 0 0 0 0 0 0 0 0 127 0" result="hardAlpha"/>
<feOffset dy="4"/>
<feGaussianBlur stdDeviation="2"/>
<feComposite in2="hardAlpha" operator="out"/>
<feColorMatrix type="matrix" values="0 0 0 0 0 0 0 0 0 0 0 0 0 0 0 0 0 0 0.25 0"/>
<feBlend mode="normal" in2="BackgroundImageFix" result="effect1_dropShadow_1_596"/>
<feBlend mode="normal" in="SourceGraphic" in2="effect1_dropShadow_1_596" result="shape"/>
</filter>
</defs>
</svg>
